<svg width="31px" height="25px" viewBox="0 0 31 25" version="1.1" xmlns="http://www.w3.org/2000/svg" xmlns:xlink="http://www.w3.org/1999/xlink">
    <g id="Hive-LP" stroke="none" stroke-width="1" fill="none" fill-rule="evenodd">
        <g id="Cadastro-1" transform="translate(-140.000000, -393.000000)" fill-rule="nonzero" stroke="#F6BD60" stroke-width="2">
            <g id="Polygon" transform="translate(141.000000, 394.000000)">
                <path d="M15.6470002,-2.45983126 C16.7743724,-1.74143684 23.9658755,2.84119839 24.7466924,3.33875763 C26,4.13740177 26,4.13740177 26,5.59160511 C26,6.52539658 26,10.6415173 26,17.9399672 C26,18.7904783 26,18.7904783 25.3519031,19.2058741 C23.0780435,20.6632981 21.4825747,21.6852224 20.5654967,22.271647 C17.2183856,24.4119536 15.4026173,25.5629598 15.118192,25.7246657 C14.5,26.0761296 14.5,26.115424 13.8459772,25.7004511 C13.1919543,25.2854783 3.90739266,19.3845426 3.6081687,19.1747924 C3.14451457,18.8497798 3.00509384,18.8497798 3.00419163,18.0568845 C3.00328938,17.2639891 2.9947263,5.04010556 3.00503906,4.70619388 C3.02094388,4.1912204 3.00503906,4.13740177 3.46668012,3.84323063 C3.92832118,3.54905951 12.6536768,-2.01099125 13.3751765,-2.47075185 C14.4854111,-3.17822569 14.519628,-3.17822569 15.6470002,-2.45983126 Z" transform="translate(14.500000, 11.500000) rotate(90.000000) translate(-14.500000, -11.500000) "></path>
            </g>
        </g>
    </g>
</svg>